<svg id="b413d97f-e65e-436c-be4a-0fa9fe067043" data-name="Layer 1" xmlns="http://www.w3.org/2000/svg" viewBox="0 0 24 24"><defs><style>.b399abb6-dc31-45f7-a284-f60addddf8df{fill:#fbb216;}</style></defs><path class="b399abb6-dc31-45f7-a284-f60addddf8df" d="M12.71,24H11.3a.45.45,0,0,0-.23,0,10,10,0,0,1-1.32-.18,11.79,11.79,0,0,1-6.63-3.72A11.66,11.66,0,0,1,.18,14C.11,13.6.06,13.15,0,12.7V11.29a1,1,0,0,0,0-.24,9.45,9.45,0,0,1,.18-1.3A11.57,11.57,0,0,1,3.83,3.23a11.72,11.72,0,0,1,10.42-3,11.33,11.33,0,0,1,6.59,3.67,11.71,11.71,0,0,1,3,9.73,11.64,11.64,0,0,1-3.78,7.23,11.84,11.84,0,0,1-6.05,3C13.6,23.9,13.15,23.91,12.71,24Zm-7-15.46a4.85,4.85,0,0,0,.47,2.17,12.87,12.87,0,0,0,2.79,4,12.65,12.65,0,0,0,5.43,3.38,3.16,3.16,0,0,0,2.32-.2,5.23,5.23,0,0,0,1.39-1.13.54.54,0,0,0,0-.89L16,13.82a.53.53,0,0,0-.88,0L14,15a1.09,1.09,0,0,1-1.52.11A15.6,15.6,0,0,1,9,11.66a1.08,1.08,0,0,1,.11-1.57l1.17-1.18a.52.52,0,0,0,0-.85L8.13,5.94a.53.53,0,0,0-.84,0l-.65.65A3.12,3.12,0,0,0,5.69,8.54Z"/></svg>