<svg id="f597421d-6608-4592-a401-d81278a560f2" data-name="Layer 1" xmlns="http://www.w3.org/2000/svg" viewBox="0 0 24 24"><defs><style>.ef8ed89c-4125-4810-8268-5d84e80a9336{fill:#fbb216;}</style></defs><path class="ef8ed89c-4125-4810-8268-5d84e80a9336" d="M12,.32A11.68,11.68,0,1,0,23.68,12,11.68,11.68,0,0,0,12,.32ZM8.14,18.38H5.65c-.13,0-.17,0-.17-.17V9.33c0-.13,0-.17.16-.17H8.17c.16,0,.18.06.18.2v8.81C8.35,18.34,8.31,18.39,8.14,18.38ZM6.92,7.89A1.66,1.66,0,1,1,8.58,6.23,1.67,1.67,0,0,1,6.92,7.89ZM19.1,18.19c0,.15,0,.19-.19.19H16.42c-.15,0-.18,0-.18-.18,0-1.53,0-3.07,0-4.61a4.39,4.39,0,0,0-.13-1.14,1.29,1.29,0,0,0-1.42-1A1.54,1.54,0,0,0,13.07,13a5.81,5.81,0,0,0-.05.72c0,1.49,0,3,0,4.48,0,.15,0,.19-.19.19H10.33c-.14,0-.18,0-.18-.17,0-3,0-5.91,0-8.87,0-.15,0-.18.19-.18h2.39c.14,0,.18.05.18.19,0,.35,0,.7,0,1.06.2-.22.35-.44.55-.62a3,3,0,0,1,2.16-.86A5.17,5.17,0,0,1,17,9.1a2.65,2.65,0,0,1,1.88,2,8.28,8.28,0,0,1,.25,2.27C19.11,15,19.1,16.58,19.1,18.19Z"/></svg>