<svg id="f908cc6a-d66b-4e19-bfe2-d3efa841e246" data-name="Layer 1" xmlns="http://www.w3.org/2000/svg" viewBox="0 0 24 24"><defs><style>.b7cc52a0-9126-447b-9211-8b2b17b114f8{fill:#fbb216;}</style></defs><path class="b7cc52a0-9126-447b-9211-8b2b17b114f8" d="M17.73,7.66a2.16,2.16,0,0,0-.55-.84,2.16,2.16,0,0,0-.84-.55A3.76,3.76,0,0,0,15,6c-.77,0-1,0-3,0S9.8,6,9,6a3.76,3.76,0,0,0-1.37.26,2.16,2.16,0,0,0-.84.55,2.16,2.16,0,0,0-.55.84A3.76,3.76,0,0,0,6,9c0,.77,0,1,0,3s0,2.2,0,3a3.76,3.76,0,0,0,.26,1.37,2.16,2.16,0,0,0,.55.84,2.16,2.16,0,0,0,.84.55A3.76,3.76,0,0,0,9,18c.77,0,1,0,3,0s2.2,0,3,0a3.76,3.76,0,0,0,1.37-.26,2.46,2.46,0,0,0,1.39-1.39A3.76,3.76,0,0,0,18,15c0-.77,0-1,0-3s0-2.2,0-3A3.76,3.76,0,0,0,17.73,7.66ZM12,15.78A3.78,3.78,0,1,1,15.78,12,3.78,3.78,0,0,1,12,15.78ZM15.93,9a.89.89,0,1,1,.88-.89A.89.89,0,0,1,15.93,9Z"/><path class="b7cc52a0-9126-447b-9211-8b2b17b114f8" d="M12,9.55A2.45,2.45,0,1,0,14.45,12,2.45,2.45,0,0,0,12,9.55Z"/><path class="b7cc52a0-9126-447b-9211-8b2b17b114f8" d="M12,.32A11.68,11.68,0,1,0,23.68,12,11.68,11.68,0,0,0,12,.32ZM19.31,15A5.31,5.31,0,0,1,19,16.82,3.79,3.79,0,0,1,16.82,19a5.31,5.31,0,0,1-1.79.34c-.78,0-1,.05-3,.05s-2.25,0-3-.05A5.31,5.31,0,0,1,7.18,19,3.79,3.79,0,0,1,5,16.82,5.31,5.31,0,0,1,4.69,15c0-.78-.05-1-.05-3s0-2.25.05-3A5.31,5.31,0,0,1,5,7.18,3.79,3.79,0,0,1,7.18,5,5.31,5.31,0,0,1,9,4.69c.78,0,1-.05,3-.05s2.25,0,3,.05A5.31,5.31,0,0,1,16.82,5,3.79,3.79,0,0,1,19,7.18,5.31,5.31,0,0,1,19.31,9c0,.78.05,1,.05,3S19.35,14.25,19.31,15Z"/></svg>