<svg id="ba3dc944-efe2-45bc-8218-be8a8ce0404a" data-name="Layer 1" xmlns="http://www.w3.org/2000/svg" viewBox="0 0 24 24"><defs><style>.a539db54-3b33-42b1-bb71-828dcc6f062b{fill:#fbb216;fill-rule:evenodd;}</style></defs><path class="a539db54-3b33-42b1-bb71-828dcc6f062b" d="M12,.32A11.68,11.68,0,1,0,23.68,12,11.68,11.68,0,0,0,12,.32ZM18.46,9.5c0,.13,0,.27,0,.4A8.83,8.83,0,0,1,4.88,17.34c.25,0,.49,0,.74,0a6.24,6.24,0,0,0,3.86-1.33,3.11,3.11,0,0,1-2.9-2.15,3.68,3.68,0,0,0,.58,0A3.18,3.18,0,0,0,8,13.84a3.1,3.1,0,0,1-2.49-3v0a3.19,3.19,0,0,0,1.41.39A3.09,3.09,0,0,1,5.52,8.57,3.06,3.06,0,0,1,5.94,7a8.82,8.82,0,0,0,6.39,3.24,3.29,3.29,0,0,1-.08-.71,3.11,3.11,0,0,1,5.37-2.12,6.43,6.43,0,0,0,2-.75,3.1,3.1,0,0,1-1.37,1.71A5.87,5.87,0,0,0,20,7.89,6.21,6.21,0,0,1,18.46,9.5Z"/></svg>