<svg id="e6b1ec15-1624-4e67-a95b-e77114cae3df" data-name="Layer 1" xmlns="http://www.w3.org/2000/svg" viewBox="0 0 138 53"><defs><style>.a015cb12-1373-4fff-8cce-e1afa9472ff0,.ef5a1f07-5030-4cd0-bd5f-db46c2889b0d{fill:#fff;}.ef5a1f07-5030-4cd0-bd5f-db46c2889b0d{fill-rule:evenodd;}</style></defs><path class="ef5a1f07-5030-4cd0-bd5f-db46c2889b0d" d="M39.11,10.1a.94.94,0,0,1-.06-.24l.06.24"/><path class="ef5a1f07-5030-4cd0-bd5f-db46c2889b0d" d="M41.2,4.85c-.51-.37-1-.72-1.54-1A19.61,19.61,0,0,0,37,2.27a19.76,19.76,0,0,0-2.76-1A25.86,25.86,0,0,0,27.87.38a28.15,28.15,0,0,0-4.6.31c-.8.12-1.58.28-2.36.47a25.38,25.38,0,0,0-2.45.69A22,22,0,0,0,7.26,9.27,26.06,26.06,0,0,0,44.05,46.06l-3.38-2.31-.08-.09a23.51,23.51,0,0,1-22.93,2.22,21.85,21.85,0,0,1-5.51-4,21.65,21.65,0,0,1-1.26-29.26C12.25,11.2,13.8,10,15.25,8.67A21.68,21.68,0,0,1,35.86,6.59l.08,0,.56.26a19.81,19.81,0,0,0,1.94,1,21.56,21.56,0,0,1,8.82,9.88l.2,0A23.86,23.86,0,0,0,39.9,8a22.26,22.26,0,0,0-4.41-2.3H36a17.11,17.11,0,0,0-3.2-1.31A19.87,19.87,0,0,0,30,3.88a21.14,21.14,0,0,0-2.87-.14,21.2,21.2,0,0,0-6.32.78C14.39,6.05,9.58,10.86,6.46,16.59a27.59,27.59,0,0,0-1.22,2.58c-.35.88-.66,1.77-.92,2.67-.06.24-.13.47-.19.7.06-.4.14-.79.22-1.19.18-.74.39-1.46.62-2.18,2.55-6.94,7.36-12.44,13.82-15a20.64,20.64,0,0,1,7.05-1.41c.44,0,.89,0,1.34,0A23.18,23.18,0,0,1,45.9,12.13a23.73,23.73,0,0,1,3.77,5.67h1.66a26.21,26.21,0,0,0-10.13-13"/><path class="ef5a1f07-5030-4cd0-bd5f-db46c2889b0d" d="M126.57,32.08a4.91,4.91,0,0,1,2.06-3.57c4-2.81,2.53,4.61-2.06,3.57m-6,6.61a7.62,7.62,0,0,0,1.8,2,9.23,9.23,0,0,0,2.21,1.22,11.31,11.31,0,0,0,2.39.64,15.08,15.08,0,0,0,2.39.19,17.91,17.91,0,0,0,3.69-.34,11.43,11.43,0,0,0,3.18-1.17l.36-.2L136,35.12l-1.24,1a8,8,0,0,1-1.34.84,7.82,7.82,0,0,1-1.54.55,7.44,7.44,0,0,1-1.64.2,5.69,5.69,0,0,1-1.15-.12,3.51,3.51,0,0,1-1-.36,2.25,2.25,0,0,1-.67-.56,2.19,2.19,0,0,1-.39-.9l0-.15c.52,0,1,0,1.56-.08.85-.07,1.69-.19,2.51-.34a14.44,14.44,0,0,0,2.46-.69,7.88,7.88,0,0,0,2.1-1.19A4.4,4.4,0,0,0,137,31.43a4.79,4.79,0,0,0,.14-2.67,5.74,5.74,0,0,0-.94-2.19c-1.69-2.32-4.7-3-7.43-3a11.32,11.32,0,0,0-3.66.59,8.84,8.84,0,0,0-2.94,1.68,8.51,8.51,0,0,0-2,2.64,9.72,9.72,0,0,0-1,3.46,13.67,13.67,0,0,0,.25,4.11A8.1,8.1,0,0,0,120.53,38.69Z"/><path class="ef5a1f07-5030-4cd0-bd5f-db46c2889b0d" d="M86,24.16H78.53L76.2,34.54,73.31,24.16H67l-2.51,9.93-2.23-9.93h-7L59.38,42.7h8.24l2.61-9.55,2.14,9.55H81c1.5-6.25,3.22-12.38,5-18.54"/><path class="ef5a1f07-5030-4cd0-bd5f-db46c2889b0d" d="M22.58,12.66c1.11,2.9,2.73,7.09,2.92,7.64.28.82.57,1.63.86,2.43.22.58.45,1.2.7,1.85.25-.65.49-1.27.7-1.85.3-.8.58-1.61.87-2.43.19-.55,1.8-4.74,2.91-7.64H40.2L30.93,32.38l0,10.32H23.22l0-10.32L13.92,12.66Z"/><path class="ef5a1f07-5030-4cd0-bd5f-db46c2889b0d" d="M98.31,34.27c0,2.3-4.74,4.45-4.07-.91a6,6,0,0,1,.44-1.65,5.34,5.34,0,0,1,.75-1.21,3.45,3.45,0,0,1,2.88-1.37Zm7.33-9.45a19.86,19.86,0,0,0-8-1.29c-5,.26-9.49,2.58-11,7.71-1.44,4.86,1.15,11.43,6.67,11.46a5.25,5.25,0,0,0,5-3c0,.95,0,2,0,3,1,0,7.18,0,7.33,0C105.67,36.74,105.65,30.78,105.64,24.82Z"/><path class="a015cb12-1373-4fff-8cce-e1afa9472ff0" d="M135.44,14.16V12.24H136l.35,1.31.34-1.31h.58v1.92h-.36V12.65l-.38,1.51h-.37l-.38-1.51v1.51Zm-1.2,0v-1.6h-.57v-.32h1.52v.32h-.56v1.6Z"/><path class="ef5a1f07-5030-4cd0-bd5f-db46c2889b0d" d="M43.41,32.08a4.91,4.91,0,0,1,2.06-3.57c4-2.81,2.53,4.61-2.06,3.57m-6,6.61a8,8,0,0,0,1.8,2,9.48,9.48,0,0,0,2.22,1.22,11,11,0,0,0,2.39.64,14.9,14.9,0,0,0,2.39.19,18,18,0,0,0,3.69-.34A11.36,11.36,0,0,0,53,41.19l.36-.2-.54-5.87-1.25,1a8.29,8.29,0,0,1-1.33.84,8.15,8.15,0,0,1-1.55.55,7.27,7.27,0,0,1-1.63.2,5.79,5.79,0,0,1-1.16-.12,3.56,3.56,0,0,1-1-.36,2.17,2.17,0,0,1-.68-.56,2.31,2.31,0,0,1-.38-.9l0-.15c.52,0,1,0,1.56-.08.85-.07,1.68-.19,2.5-.34a14.55,14.55,0,0,0,2.47-.69,8,8,0,0,0,2.1-1.19,4.57,4.57,0,0,0,1.38-1.88A4.79,4.79,0,0,0,54,28.76a5.61,5.61,0,0,0-.95-2.19c-1.69-2.32-4.7-3-7.42-3a11.38,11.38,0,0,0-3.67.59A8.89,8.89,0,0,0,39,25.8a8.37,8.37,0,0,0-2,2.64,9.94,9.94,0,0,0-1,3.46A13.68,13.68,0,0,0,36.3,36,8.07,8.07,0,0,0,37.36,38.69Z"/><rect class="a015cb12-1373-4fff-8cce-e1afa9472ff0" x="108.94" y="12.48" width="7.7" height="30.22"/></svg>